<?xml version="1.0" encoding="utf-8" ?>
<!DOCTYPE svg PUBLIC "-//W3C//DTD SVG 1.1//EN" "http://www.w3.org/Graphics/SVG/1.1/DTD/svg11.dtd">
<svg height="286" version="1.1" width="668" xmlns="http://www.w3.org/2000/svg">
<line fill="#000000" stroke="#000000" stroke-width="1" x1="93" x2="93" y1="14" y2="272"/>
<line fill="#000000" stroke="#000000" stroke-width="1" x1="14" x2="14" y1="14" y2="272"/>
<line fill="#000000" stroke="#000000" stroke-width="1" x1="14" x2="93" y1="14" y2="14"/>
<line fill="#000000" stroke="#000000" stroke-width="1" x1="14" x2="93" y1="272" y2="272"/>
<text font-family="Dialog" font-size="12" x="41" y="27">
Start</text>
<line fill="#000000" stroke="#000000" stroke-width="1" x1="14" x2="93" y1="39" y2="39"/>
<line fill="#000000" stroke="#000000" stroke-width="1" x1="333" x2="333" y1="14" y2="272"/>
<line fill="#000000" stroke="#000000" stroke-width="1" x1="94" x2="333" y1="14" y2="14"/>
<line fill="#000000" stroke="#000000" stroke-width="1" x1="94" x2="333" y1="272" y2="272"/>
<text font-family="Dialog" font-size="12" x="191" y="27">
Working</text>
<line fill="#000000" stroke="#000000" stroke-width="1" x1="94" x2="333" y1="39" y2="39"/>
<line fill="#000000" stroke="#000000" stroke-width="1" x1="557" x2="557" y1="14" y2="272"/>
<line fill="#000000" stroke="#000000" stroke-width="1" x1="334" x2="557" y1="14" y2="14"/>
<line fill="#000000" stroke="#000000" stroke-width="1" x1="334" x2="557" y1="272" y2="272"/>
<text font-family="Dialog" font-size="12" x="418" y="27">
Analyzing</text>
<line fill="#000000" stroke="#000000" stroke-width="1" x1="334" x2="557" y1="39" y2="39"/>
<line fill="#000000" stroke="#000000" stroke-width="1" x1="653" x2="653" y1="14" y2="272"/>
<line fill="#000000" stroke="#000000" stroke-width="1" x1="558" x2="653" y1="14" y2="14"/>
<line fill="#000000" stroke="#000000" stroke-width="1" x1="558" x2="653" y1="272" y2="272"/>
<text font-family="Dialog" font-size="12" x="571" y="27">
Termination</text>
<line fill="#000000" stroke="#000000" stroke-width="1" x1="558" x2="653" y1="39" y2="39"/>
<ellipse cx="54" cy="142" fill="#000000" rx="8.0" ry="8.0" stroke="#000000" stroke-width="1"/>
<rect fill="#00ff" height="48" rx="50" ry="50" stroke="#00ff" stroke-width="1" width="134" x="143" y="119"/>
<rect fill="#ffffff" height="50" rx="50" ry="50" stroke="#ffffff" stroke-width="1" width="136" x="142" y="118"/>
<rect fill="#ffffff" height="50" rx="50" ry="50" stroke="#000000" stroke-width="1" width="136" x="142" y="118"/>
<text font-family="Dialog" font-size="12" x="171" y="137">
Send/Receive</text>
<text font-family="Dialog" font-size="12" x="191" y="152">
Packet</text>
<rect fill="#00ff" height="48" rx="50" ry="50" stroke="#00ff" stroke-width="1" width="104" x="391" y="119"/>
<rect fill="#ffffff" height="50" rx="50" ry="50" stroke="#ffffff" stroke-width="1" width="106" x="390" y="118"/>
<rect fill="#ffffff" height="50" rx="50" ry="50" stroke="#000000" stroke-width="1" width="106" x="390" y="118"/>
<text font-family="Dialog" font-size="12" x="417" y="137">
Calculate</text>
<text font-family="Dialog" font-size="12" x="418" y="152">
Statistics</text>
<ellipse cx="602" cy="138" fill="#000000" rx="12.0" ry="12.0" stroke="#000000" stroke-width="1"/>
<ellipse cx="602" cy="138" fill="#ffffff" rx="11.0" ry="11.0" stroke="#ffffff" stroke-width="1"/>
<ellipse cx="601" cy="137" fill="#000000" rx="7.5" ry="7.5" stroke="#000000" stroke-width="1"/>
<polygon fill="#ffffff" points="310,126 326,142 310,158 294,142" stroke="#ffffff" stroke-width="1"/>
<polygon fill="none" points="310,126 326,142 310,158 294,142" stroke="#000000" stroke-width="1"/>
<polyline fill="none" points="277,142 294,142" stroke="#000000" stroke-width="1"/>
<line fill="#000000" stroke="#000000" stroke-width="1" x1="282" x2="294" y1="149" y2="142"/>
<line fill="#000000" stroke="#000000" stroke-width="1" x1="282" x2="294" y1="135" y2="142"/>
<polygon fill="#ffffff" points="118,126 134,142 118,158 102,142" stroke="#ffffff" stroke-width="1"/>
<polygon fill="none" points="118,126 134,142 118,158 102,142" stroke="#000000" stroke-width="1"/>
<polyline fill="none" points="134,142 143,142" stroke="#000000" stroke-width="1"/>
<line fill="#000000" stroke="#000000" stroke-width="1" x1="131" x2="143" y1="149" y2="142"/>
<line fill="#000000" stroke="#000000" stroke-width="1" x1="131" x2="143" y1="135" y2="142"/>
<polyline fill="none" points="310,126 310,86 118,86 118,126" stroke="#000000" stroke-width="1"/>
<line fill="#000000" stroke="#000000" stroke-width="1" x1="111" x2="118" y1="114" y2="126"/>
<line fill="#000000" stroke="#000000" stroke-width="1" x1="125" x2="118" y1="114" y2="126"/>
<text font-family="Dialog" font-size="12" x="165" y="81">
timing and active</text>
<polyline fill="none" points="326,142 391,142" stroke="#000000" stroke-width="1"/>
<line fill="#000000" stroke="#000000" stroke-width="1" x1="379" x2="391" y1="149" y2="142"/>
<line fill="#000000" stroke="#000000" stroke-width="1" x1="379" x2="391" y1="135" y2="142"/>
<text font-family="Dialog" font-size="12" x="311" y="173">
analyzing time</text>
<polygon fill="#ffffff" points="526,126 542,142 526,158 510,142" stroke="#ffffff" stroke-width="1"/>
<polygon fill="none" points="526,126 542,142 526,158 510,142" stroke="#000000" stroke-width="1"/>
<polyline fill="none" points="495,142 510,142" stroke="#000000" stroke-width="1"/>
<line fill="#000000" stroke="#000000" stroke-width="1" x1="498" x2="510" y1="149" y2="142"/>
<line fill="#000000" stroke="#000000" stroke-width="1" x1="498" x2="510" y1="135" y2="142"/>
<polyline fill="none" points="526,158 526,214 118,214 118,158" stroke="#000000" stroke-width="1"/>
<line fill="#000000" stroke="#000000" stroke-width="1" x1="125" x2="118" y1="170" y2="158"/>
<line fill="#000000" stroke="#000000" stroke-width="1" x1="111" x2="118" y1="170" y2="158"/>
<text font-family="Dialog" font-size="12" x="294" y="209">
still active</text>
<polyline fill="none" points="62,142 102,142" stroke="#000000" stroke-width="1"/>
<line fill="#000000" stroke="#000000" stroke-width="1" x1="90" x2="102" y1="149" y2="142"/>
<line fill="#000000" stroke="#000000" stroke-width="1" x1="90" x2="102" y1="135" y2="142"/>
<polyline fill="none" points="542,142 590,138" stroke="#000000" stroke-width="1"/>
<line fill="#000000" stroke="#000000" stroke-width="1" x1="578" x2="590" y1="145" y2="138"/>
<line fill="#000000" stroke="#000000" stroke-width="1" x1="577" x2="590" y1="132" y2="138"/>
<text font-family="Dialog" font-size="12" x="526" y="121">
deactivated</text>
</svg>
