<?xml version="1.0" encoding="utf-8" ?>
<!DOCTYPE svg PUBLIC "-//W3C//DTD SVG 1.1//EN" "http://www.w3.org/Graphics/SVG/1.1/DTD/svg11.dtd">
<svg height="1448" version="1.1" width="1968" xmlns="http://www.w3.org/2000/svg">
<rect fill="#ffffff" height="256" stroke="#ffffff" stroke-width="1" width="422" x="686" y="350"/>
<rect fill="none" height="256" stroke="#000000" stroke-width="1" width="422" x="686" y="350"/>
<text font-family="Dialog" font-size="12" font-style="italic" x="757" y="363">
com::spam::mctool::model::MulticastStream----</text>
<rect fill="#000000" height="1" stroke="#000000" stroke-width="1" width="422" x="686" y="373"/>
<text font-family="Dialog" font-size="12" font-style="italic" x="690" y="387">
activate() : void</text>
<text font-family="Dialog" font-size="12" font-style="italic" x="690" y="403">
deactivate() : void</text>
<text font-family="Dialog" font-size="12" x="690" y="419">
getGroup() : InetAddress</text>
<text font-family="Dialog" font-size="12" x="690" y="435">
setGroup(group : Object) : boolean</text>
<text font-family="Dialog" font-size="12" x="690" y="451">
getPort() : int</text>
<text font-family="Dialog" font-size="12" x="690" y="467">
setPort(port : Object) : boolean</text>
<text font-family="Dialog" font-size="12" x="690" y="483">
getNetworkInterface() : NetworkInterface</text>
<text font-family="Dialog" font-size="12" x="690" y="499">
setNetworkInterface(networkInterface : Object) : boolean</text>
<text font-family="Dialog" font-size="12" x="690" y="515">
getState() : State</text>
<text font-family="Dialog" font-size="12" x="690" y="531">
isActive() : boolean</text>
<text font-family="Dialog" font-size="12" x="690" y="547">
getAnalyzingBehaviour() : AnalyzingBehaviour</text>
<text font-family="Dialog" font-size="12" x="690" y="563">
setAnalyzingBehaviour(analyzingBehaviour : AnalyzingBehaviour) : void</text>
<text font-family="Dialog" font-size="12" x="690" y="579">
getStatsInterval() : int</text>
<text font-family="Dialog" font-size="12" x="690" y="595">
setStatsInterval(statsInterval : int) : void</text>
<rect fill="#ffffff" height="467" stroke="#ffffff" stroke-width="1" width="440" x="934" y="670"/>
<rect fill="none" height="467" stroke="#000000" stroke-width="1" width="440" x="934" y="670"/>
<text font-family="Dialog" font-size="12" x="1030" y="702">
com::spam::mctool::model::ReceiverGroup</text>
<text font-family="Dialog" font-size="12" x="1117" y="684">
&lt;&lt;active&gt;&gt;</text>
<rect fill="#000000" height="1" stroke="#000000" stroke-width="1" width="440" x="934" y="712"/>
<text font-family="Dialog" font-size="12" x="938" y="726">
&lt;&lt;create&gt;&gt; ReceiverGroup(stpe : ScheduledThreadPoolExecutor)</text>
<text font-family="Dialog" font-size="12" x="938" y="742">
activate() : void</text>
<text font-family="Dialog" font-size="12" x="938" y="758">
deactivate() : void</text>
<text font-family="Dialog" font-size="12" x="938" y="774">
run() : void</text>
<text font-family="Dialog" font-size="12" x="938" y="790">
addReceiverDataChangeListener(l : ReceiverDataChangeListener) : void</text>
<text font-family="Dialog" font-size="12" x="938" y="806">
removeReceiverDataChangeListener(l : ReceiverDataChangeListener) : void</text>
<text font-family="Dialog" font-size="12" x="938" y="822">
fireReceiverDataChangedEvent(e : ReceiverDataChangedEvent) : void</text>
<text font-family="Dialog" font-size="12" x="938" y="838">
removeReceiver(r : Object) : void</text>
<text font-family="Dialog" font-size="12" x="938" y="854">
getExceptions() : Map&lt;Long, Exception&gt;</text>
<text font-family="Dialog" font-size="12" x="938" y="870">
getFaultyPackets() : long</text>
<text font-family="Dialog" font-size="12" x="938" y="886">
getMaxDelay() : long</text>
<text font-family="Dialog" font-size="12" x="938" y="902">
getReceivedPackets() : long</text>
<text font-family="Dialog" font-size="12" x="938" y="918">
getLostPackets() : long</text>
<text font-family="Dialog" font-size="12" x="938" y="934">
getLostPacketsPermille() : double</text>
<text font-family="Dialog" font-size="12" x="938" y="950">
getSenderConfiguredPPS() : long</text>
<text font-family="Dialog" font-size="12" x="938" y="966">
getSenderMeasuredPPS() : long</text>
<text font-family="Dialog" font-size="12" x="938" y="982">
getSenderSentPackets() : long</text>
<text font-family="Dialog" font-size="12" x="938" y="998">
getMinPPS() : long</text>
<text font-family="Dialog" font-size="12" x="938" y="1014">
getMaxPPS() : long</text>
<text font-family="Dialog" font-size="12" x="938" y="1030">
getMinTraversal() : long</text>
<text font-family="Dialog" font-size="12" x="938" y="1046">
getMaxTraversal() : long</text>
<text font-family="Dialog" font-size="12" x="938" y="1062">
getAvgPPS() : long</text>
<text font-family="Dialog" font-size="12" x="938" y="1078">
getAvgTraversal() : long</text>
<text font-family="Dialog" font-size="12" x="938" y="1094">
getTotalPPS() : long</text>
<text font-family="Dialog" font-size="12" x="938" y="1110">
toString() : String</text>
<text font-family="Dialog" font-size="12" x="938" y="1126">
getConfiguration() : Map&lt;String, String&gt;</text>
<polyline fill="none" points="1108,670 1108,606" stroke="#000000" stroke-width="1"/>
<polygon fill="#ffffff" points="1108,606 1115,618 1101,618" stroke="#ffffff" stroke-width="1"/>
<polygon fill="none" points="1108,606 1115,618 1101,618" stroke="#000000" stroke-width="1"/>
<rect fill="#ffffff" height="515" stroke="#ffffff" stroke-width="1" width="423" x="206" y="662"/>
<rect fill="none" height="515" stroke="#000000" stroke-width="1" width="423" x="206" y="662"/>
<text font-family="Dialog" font-size="12" x="316" y="694">
com::spam::mctool::model::Sender</text>
<text font-family="Dialog" font-size="12" x="381" y="676">
&lt;&lt;active&gt;&gt;</text>
<rect fill="#000000" height="1" stroke="#000000" stroke-width="1" width="423" x="206" y="704"/>
<text font-family="Dialog" font-size="12" x="210" y="718">
&lt;&lt;create&gt;&gt; Sender(stpe : ScheduledThreadPoolExecutor)</text>
<text font-family="Dialog" font-size="12" x="210" y="734">
activate() : void</text>
<text font-family="Dialog" font-size="12" x="210" y="750">
deactivate() : void</text>
<text font-family="Dialog" font-size="12" x="210" y="766">
run() : void</text>
<text font-family="Dialog" font-size="12" x="210" y="782">
getPacket() : Packet</text>
<text font-family="Dialog" font-size="12" x="210" y="798">
fireSenderDataChangedEvent() : void</text>
<text font-family="Dialog" font-size="12" x="210" y="814">
setSenderConfiguredPacketRate(pps : Object) : boolean</text>
<text font-family="Dialog" font-size="12" x="210" y="830">
getSenderConfiguredPacketRate() : int</text>
<text font-family="Dialog" font-size="12" x="210" y="846">
addSenderDataChangeListener(l : SenderDataChangeListener) : void</text>
<text font-family="Dialog" font-size="12" x="210" y="862">
removeSenderDataChangeListener(l : SenderDataChangeListener) : void</text>
<text font-family="Dialog" font-size="12" x="210" y="878">
getSenderId() : int</text>
<text font-family="Dialog" font-size="12" x="210" y="894">
setSenderId(senderId : int) : void</text>
<text font-family="Dialog" font-size="12" x="210" y="910">
getpType() : PacketType</text>
<text font-family="Dialog" font-size="12" x="210" y="926">
setpType(pType : PacketType) : void</text>
<text font-family="Dialog" font-size="12" x="210" y="942">
getTtl() : int</text>
<text font-family="Dialog" font-size="12" x="210" y="958">
setTtl(ttl : Object) : boolean</text>
<text font-family="Dialog" font-size="12" x="210" y="974">
getPacketSize() : int</text>
<text font-family="Dialog" font-size="12" x="210" y="990">
setPacketSize(packetSize : Object) : boolean</text>
<text font-family="Dialog" font-size="12" x="210" y="1006">
getPayload() : byte[]</text>
<text font-family="Dialog" font-size="12" x="210" y="1022">
getPayloadAsString() : String</text>
<text font-family="Dialog" font-size="12" x="210" y="1038">
setPayload(payload : byte[]) : void</text>
<text font-family="Dialog" font-size="12" x="210" y="1054">
setPayloadFromString(payload : String) : void</text>
<text font-family="Dialog" font-size="12" x="210" y="1070">
getSentPacketCount() : long</text>
<text font-family="Dialog" font-size="12" x="210" y="1086">
getAvgPPS() : long</text>
<text font-family="Dialog" font-size="12" x="210" y="1102">
getMinPPS() : long</text>
<text font-family="Dialog" font-size="12" x="210" y="1118">
getMaxPPS() : long</text>
<text font-family="Dialog" font-size="12" x="210" y="1134">
isOverloaded() : boolean</text>
<text font-family="Dialog" font-size="12" x="210" y="1150">
getConfiguration() : Map&lt;String, String&gt;</text>
<text font-family="Dialog" font-size="12" x="210" y="1166">
toString() : String</text>
<polyline fill="none" points="629,662 686,606" stroke="#000000" stroke-width="1"/>
<polygon fill="#ffffff" points="686,606 682,619 672,609" stroke="#ffffff" stroke-width="1"/>
<polygon fill="none" points="686,606 682,619 672,609" stroke="#000000" stroke-width="1"/>
<rect fill="#ffffff" height="544" stroke="#ffffff" stroke-width="1" width="387" x="1430" y="662"/>
<rect fill="none" height="544" stroke="#000000" stroke-width="1" width="387" x="1430" y="662"/>
<text font-family="Dialog" font-size="12" x="1518" y="675">
com::spam::mctool::model::Receiver</text>
<rect fill="#000000" height="1" stroke="#000000" stroke-width="1" width="387" x="1430" y="685"/>
<text font-family="Dialog" font-size="12" x="1434" y="699">
&lt;&lt;create&gt;&gt; Receiver(senderId : long,abeh : AnalyzingBehaviour)</text>
<text font-family="Dialog" font-size="12" x="1434" y="715">
calcNewStatistics() : void</text>
<text font-family="Dialog" font-size="12" x="1434" y="731">
addPacketContainer(p : PacketContainer) : void</text>
<text font-family="Dialog" font-size="12" x="1434" y="747">
proposeStatisticsRenewal() : void</text>
<text font-family="Dialog" font-size="12" x="1434" y="763">
getAnalyzingBehaviour() : AnalyzingBehaviour</text>
<text font-family="Dialog" font-size="12" x="1434" y="779">
setAnalyzingBehaviour(abeh : AnalyzingBehaviour) : void</text>
<text font-family="Dialog" font-size="12" x="1434" y="795">
getTimeout() : long</text>
<text font-family="Dialog" font-size="12" x="1434" y="811">
setTimeout(timeout : long) : void</text>
<text font-family="Dialog" font-size="12" x="1434" y="827">
getSenderId() : long</text>
<text font-family="Dialog" font-size="12" x="1434" y="843">
isAlive() : boolean</text>
<text font-family="Dialog" font-size="12" x="1434" y="859">
hasChangedAliveState() : boolean</text>
<text font-family="Dialog" font-size="12" x="1434" y="875">
getLastReceivedTime() : Date</text>
<text font-family="Dialog" font-size="12" x="1434" y="891">
getLostPackets() : long</text>
<text font-family="Dialog" font-size="12" x="1434" y="907">
getLostPacketsPermille() : double</text>
<text font-family="Dialog" font-size="12" x="1434" y="923">
getReceivedPackets() : long</text>
<text font-family="Dialog" font-size="12" x="1434" y="939">
getSenderConfiguredPPS() : long</text>
<text font-family="Dialog" font-size="12" x="1434" y="955">
getSenderMeasuredPPS() : long</text>
<text font-family="Dialog" font-size="12" x="1434" y="971">
getSenderSentPackets() : long</text>
<text font-family="Dialog" font-size="12" x="1434" y="987">
getMinPPS() : int</text>
<text font-family="Dialog" font-size="12" x="1434" y="1003">
getAvgPPS() : int</text>
<text font-family="Dialog" font-size="12" x="1434" y="1019">
getMaxPPS() : int</text>
<text font-family="Dialog" font-size="12" x="1434" y="1035">
getMaxDelay() : int</text>
<text font-family="Dialog" font-size="12" x="1434" y="1051">
getMinTraversal() : long</text>
<text font-family="Dialog" font-size="12" x="1434" y="1067">
getAvgTraversal() : long</text>
<text font-family="Dialog" font-size="12" x="1434" y="1083">
getMaxTraversal() : long</text>
<text font-family="Dialog" font-size="12" x="1434" y="1099">
getPayload() : byte[]</text>
<text font-family="Dialog" font-size="12" x="1434" y="1115">
getPayloadAsString() : String</text>
<text font-family="Dialog" font-size="12" x="1434" y="1131">
getPacketSize() : long</text>
<text font-family="Dialog" font-size="12" x="1434" y="1147">
getPacketType() : PacketType</text>
<text font-family="Dialog" font-size="12" x="1434" y="1163">
getSenderAddress() : InetAddress</text>
<text font-family="Dialog" font-size="12" x="1434" y="1179">
setAlive(alive : boolean) : void</text>
<text font-family="Dialog" font-size="12" x="1434" y="1195">
toString() : String</text>
<polyline fill="none" points="1374,1006 1430,1006" stroke="#000000" stroke-width="1"/>
<polygon fill="#000000" points="1374,1006 1384,1001 1394,1006 1384,1011" stroke="#000000" stroke-width="1"/>
<polygon fill="none" points="1374,1006 1384,1001 1394,1006 1384,1011" stroke="#000000" stroke-width="1"/>
<line fill="#000000" stroke="#000000" stroke-width="1" x1="1418" x2="1430" y1="1013" y2="1006"/>
<line fill="#000000" stroke="#000000" stroke-width="1" x1="1418" x2="1430" y1="999" y2="1006"/>
<text font-family="Dialog" font-size="12" x="1393" y="1021">
1</text>
<text font-family="Dialog" font-size="12" x="1402" y="1021">
*</text>
<rect fill="#ffffff" height="304" stroke="#ffffff" stroke-width="1" width="581" x="1230" y="302"/>
<rect fill="none" height="304" stroke="#000000" stroke-width="1" width="581" x="1230" y="302"/>
<text font-family="Dialog" font-size="12" x="1403" y="315">
com::spam::mctool::model::ReceiverPool</text>
<rect fill="#000000" height="1" stroke="#000000" stroke-width="1" width="581" x="1230" y="325"/>
<text font-family="Dialog" font-size="12" x="1234" y="339">
&lt;&lt;create&gt;&gt; ReceiverPool()</text>
<text font-family="Dialog" font-size="12" x="1234" y="355">
create(params : Map&lt;String, String&gt;) : ReceiverGroup</text>
<text font-family="Dialog" font-size="12" x="1234" y="371">
getReceiverGroups() : Collection&lt;ReceiverGroup&gt;</text>
<text font-family="Dialog" font-size="12" x="1234" y="387">
killAll() : void</text>
<text font-family="Dialog" font-size="12" x="1234" y="403">
remove(receiver : ReceiverGroup) : void</text>
<text font-family="Dialog" font-size="12" x="1234" y="419">
addReceiverAddedOrRemovedListener(l : ReceiverAddedOrRemovedListener) : void</text>
<text font-family="Dialog" font-size="12" x="1234" y="435">
removeReceiverAddedOrRemovedListener(l : ReceiverAddedOrRemovedListener) : void</text>
<text font-family="Dialog" font-size="12" x="1234" y="451">
fireReceiverAddedEvent(r : ReceiverGroup) : void</text>
<text font-family="Dialog" font-size="12" x="1234" y="467">
fireReceiverRemovedEvent(r : ReceiverGroup) : void</text>
<text font-family="Dialog" font-size="12" x="1234" y="483">
getOverallReceivedPackets() : long</text>
<text font-family="Dialog" font-size="12" x="1234" y="499">
getOverallReceivedPPS() : long</text>
<text font-family="Dialog" font-size="12" x="1234" y="515">
getOverallLostPackets() : long</text>
<text font-family="Dialog" font-size="12" x="1234" y="531">
getLostPacketsPermille() : double</text>
<text font-family="Dialog" font-size="12" x="1234" y="547">
getOverallFaultyPackets() : long</text>
<text font-family="Dialog" font-size="12" x="1234" y="563">
addOverallReceiverStatisticsUpdatedListener(l : OverallReceiverStatisticsUpdatedListener) : void</text>
<text font-family="Dialog" font-size="12" x="1234" y="579">
removeOverallReceiverStatisticsUpdatedListener(l : OverallReceiverStatisticsUpdatedListener) : void</text>
<text font-family="Dialog" font-size="12" x="1234" y="595">
setThreadPoolSize(size : int) : void</text>
<polyline fill="none" points="1262,606 1262,670" stroke="#000000" stroke-width="1"/>
<polygon fill="#000000" points="1262,606 1267,616 1262,626 1257,616" stroke="#000000" stroke-width="1"/>
<polygon fill="none" points="1262,606 1267,616 1262,626 1257,616" stroke="#000000" stroke-width="1"/>
<line fill="#000000" stroke="#000000" stroke-width="1" x1="1255" x2="1262" y1="658" y2="670"/>
<line fill="#000000" stroke="#000000" stroke-width="1" x1="1269" x2="1262" y1="658" y2="670"/>
<text font-family="Dialog" font-size="12" x="1238" y="626">
1</text>
<text font-family="Dialog" font-size="12" x="1239" y="642">
*</text>
<rect fill="#ffffff" height="288" stroke="#ffffff" stroke-width="1" width="564" x="14" y="326"/>
<rect fill="none" height="288" stroke="#000000" stroke-width="1" width="564" x="14" y="326"/>
<text font-family="Dialog" font-size="12" x="183" y="339">
com::spam::mctool::model::SenderPool</text>
<rect fill="#000000" height="1" stroke="#000000" stroke-width="1" width="564" x="14" y="349"/>
<text font-family="Dialog" font-size="12" x="18" y="363">
&lt;&lt;create&gt;&gt; SenderPool()</text>
<text font-family="Dialog" font-size="12" x="18" y="379">
create(params : Map&lt;String, String&gt;) : Sender</text>
<text font-family="Dialog" font-size="12" x="18" y="395">
remove(sender : Sender) : void</text>
<text font-family="Dialog" font-size="12" x="18" y="411">
getSenders() : Collection&lt;Sender&gt;</text>
<text font-family="Dialog" font-size="12" x="18" y="427">
killAll() : void</text>
<text font-family="Dialog" font-size="12" x="18" y="443">
addSenderAddedOrRemovedListener(l : SenderAddedOrRemovedListener) : void</text>
<text font-family="Dialog" font-size="12" x="18" y="459">
removeSenderAddedOrRemovedListener(l : SenderAddedOrRemovedListener) : void</text>
<text font-family="Dialog" font-size="12" x="18" y="475">
fireSenderAddedEvent(s : Sender) : void</text>
<text font-family="Dialog" font-size="12" x="18" y="491">
fireSenderRemovedEvent(s : Sender) : void</text>
<text font-family="Dialog" font-size="12" x="18" y="507">
getStatsInterval() : int</text>
<text font-family="Dialog" font-size="12" x="18" y="523">
setStatsInterval(statsInterval : int) : void</text>
<text font-family="Dialog" font-size="12" x="18" y="539">
getOverallSentPackets() : long</text>
<text font-family="Dialog" font-size="12" x="18" y="555">
getOverallSentPPS() : long</text>
<text font-family="Dialog" font-size="12" x="18" y="571">
addOverallSenderStatisticsUpdatedListener(l : OverallSenderStatisticsUpdatedListener) : void</text>
<text font-family="Dialog" font-size="12" x="18" y="587">
removeOverallSenderStatisticsUpdatedListener(l : OverallSenderStatisticsUpdatedListener) : void</text>
<text font-family="Dialog" font-size="12" x="18" y="603">
setThreadPoolSize(size : int) : void</text>
<polyline fill="none" points="419,614 419,662" stroke="#000000" stroke-width="1"/>
<polygon fill="#000000" points="419,614 424,624 419,634 414,624" stroke="#000000" stroke-width="1"/>
<polygon fill="none" points="419,614 424,624 419,634 414,624" stroke="#000000" stroke-width="1"/>
<line fill="#000000" stroke="#000000" stroke-width="1" x1="412" x2="419" y1="650" y2="662"/>
<line fill="#000000" stroke="#000000" stroke-width="1" x1="426" x2="419" y1="650" y2="662"/>
<text font-family="Dialog" font-size="12" x="395" y="634">
1</text>
<text font-family="Dialog" font-size="12" x="396" y="634">
*</text>
<rect fill="#c8ffff" height="259" stroke="#c8ffff" stroke-width="1" width="576" x="1230" y="14"/>
<rect fill="none" height="259" stroke="#000000" stroke-width="1" width="576" x="1230" y="14"/>
<text font-family="Dialog" font-size="12" x="1366" y="46">
com::spam::mctool::model::ReceiverManager------</text>
<text font-family="Dialog" font-size="12" x="1473" y="28">
&lt;&lt;interface&gt;&gt;</text>
<rect fill="#000000" height="1" stroke="#000000" stroke-width="1" width="576" x="1230" y="56"/>
<text font-family="Dialog" font-size="12" x="1234" y="70">
create(params : Map&lt;String, String&gt;) : ReceiverGroup</text>
<text font-family="Dialog" font-size="12" x="1234" y="86">
remove(receiver : ReceiverGroup) : void</text>
<text font-family="Dialog" font-size="12" x="1234" y="102">
getReceiverGroups() : ReceiverGroup&gt;</text>
<text font-family="Dialog" font-size="12" x="1234" y="118">
killAll() : void</text>
<text font-family="Dialog" font-size="12" x="1234" y="134">
addReceiverAddedOrRemovedListener(l : ReceiverAddedOrRemovedListener) : void</text>
<text font-family="Dialog" font-size="12" x="1234" y="150">
removeReceiverAddedOrRemovedListener(l : ReceiverAddedOrRemovedListener) : void</text>
<text font-family="Dialog" font-size="12" x="1234" y="166">
addOverallReceiverStatisticsUpdatedListener(l : OverallReceiverStatisticsUpdatedListener) : void</text>
<text font-family="Dialog" font-size="12" x="1234" y="182">
removeOverallReceiverStatisticsUpdatedListener(l : OverallReceiverStatisticsUpdatedListener) : void</text>
<text font-family="Dialog" font-size="12" x="1234" y="198">
getOverallReceivedPackets() : long</text>
<text font-family="Dialog" font-size="12" x="1234" y="214">
getOverallReceivedPPS() : long</text>
<text font-family="Dialog" font-size="12" x="1234" y="230">
getOverallLostPackets() : long</text>
<text font-family="Dialog" font-size="12" x="1234" y="246">
getOverallFaultyPackets() : long</text>
<text font-family="Dialog" font-size="12" x="1234" y="262">
setThreadPoolSize(size : int) : void</text>
<line fill="#000000" stroke="#000000" stroke-width="1" x1="1414" x2="1414" y1="302" y2="297"/>
<line fill="#000000" stroke="#000000" stroke-width="1" x1="1414" x2="1414" y1="292" y2="287"/>
<line fill="#000000" stroke="#000000" stroke-width="1" x1="1414" x2="1414" y1="282" y2="277"/>
<polygon fill="#ffffff" points="1414,273 1421,285 1407,285" stroke="#ffffff" stroke-width="1"/>
<polygon fill="none" points="1414,273 1421,285 1407,285" stroke="#000000" stroke-width="1"/>
<text font-family="Dialog" font-size="12" x="1327" y="300">
&lt;&lt;realize&gt;&gt;</text>
<rect fill="#c8ffff" height="227" stroke="#c8ffff" stroke-width="1" width="558" x="14" y="54"/>
<rect fill="none" height="227" stroke="#000000" stroke-width="1" width="558" x="14" y="54"/>
<text font-family="Dialog" font-size="12" x="156" y="86">
com::spam::mctool::model::SenderManager---</text>
<text font-family="Dialog" font-size="12" x="248" y="68">
&lt;&lt;interface&gt;&gt;</text>
<rect fill="#000000" height="1" stroke="#000000" stroke-width="1" width="558" x="14" y="96"/>
<text font-family="Dialog" font-size="12" x="18" y="110">
create(params : Map&lt;String, String&gt;) : Sender</text>
<text font-family="Dialog" font-size="12" x="18" y="126">
remove(sender : Sender) : void</text>
<text font-family="Dialog" font-size="12" x="18" y="142">
getSenders() : Sender&gt;</text>
<text font-family="Dialog" font-size="12" x="18" y="158">
killAll() : void</text>
<text font-family="Dialog" font-size="12" x="18" y="174">
addSenderAddedOrRemovedListener(l : SenderAddedOrRemovedListener) : void</text>
<text font-family="Dialog" font-size="12" x="18" y="190">
removeSenderAddedOrRemovedListener(l : SenderAddedOrRemovedListener) : void</text>
<text font-family="Dialog" font-size="12" x="18" y="206">
addOverallSenderStatisticsUpdatedListener(l : OverallSenderStatisticsUpdatedListener) : void</text>
<text font-family="Dialog" font-size="12" x="18" y="222">
removeOverallSenderStatisticsUpdatedListener(l : OverallSenderStatisticsUpdatedListener) : void</text>
<text font-family="Dialog" font-size="12" x="18" y="238">
getOverallSentPackets() : long</text>
<text font-family="Dialog" font-size="12" x="18" y="254">
getOverallSentPPS() : long</text>
<text font-family="Dialog" font-size="12" x="18" y="270">
setThreadPoolSize(size : int) : void</text>
<line fill="#000000" stroke="#000000" stroke-width="1" x1="517" x2="517" y1="326" y2="321"/>
<line fill="#000000" stroke="#000000" stroke-width="1" x1="517" x2="517" y1="316" y2="311"/>
<line fill="#000000" stroke="#000000" stroke-width="1" x1="517" x2="517" y1="306" y2="301"/>
<line fill="#000000" stroke="#000000" stroke-width="1" x1="517" x2="517" y1="296" y2="291"/>
<line fill="#000000" stroke="#000000" stroke-width="1" x1="517" x2="517" y1="286" y2="281"/>
<polygon fill="#ffffff" points="517,281 524,293 510,293" stroke="#ffffff" stroke-width="1"/>
<polygon fill="none" points="517,281 524,293 510,293" stroke="#000000" stroke-width="1"/>
<text font-family="Dialog" font-size="12" x="430" y="316">
&lt;&lt;realize&gt;&gt;</text>
<polygon fill="#c0c0c0" points="710,1182 922,1182 922,1205 971,1205 971,1281 710,1281 710,1182" stroke="#c0c0c0" stroke-width="1"/>
<rect fill="none" height="23" stroke="#000000" stroke-width="1" width="212" x="710" y="1182"/>
<text font-family="Dialog" font-size="12" x="715" y="1195">
com::spam::mctool::model::packet</text>
<rect fill="none" height="76" stroke="#000000" stroke-width="1" width="261" x="710" y="1205"/>
<line fill="#000000" stroke="#000000" stroke-width="1" x1="629" x2="634" y1="1177" y2="1177"/>
<line fill="#000000" stroke="#000000" stroke-width="1" x1="639" x2="644" y1="1177" y2="1177"/>
<line fill="#000000" stroke="#000000" stroke-width="1" x1="649" x2="654" y1="1178" y2="1178"/>
<line fill="#000000" stroke="#000000" stroke-width="1" x1="659" x2="664" y1="1178" y2="1179"/>
<line fill="#000000" stroke="#000000" stroke-width="1" x1="669" x2="674" y1="1179" y2="1179"/>
<line fill="#000000" stroke="#000000" stroke-width="1" x1="679" x2="684" y1="1180" y2="1180"/>
<line fill="#000000" stroke="#000000" stroke-width="1" x1="689" x2="694" y1="1180" y2="1181"/>
<line fill="#000000" stroke="#000000" stroke-width="1" x1="699" x2="704" y1="1181" y2="1181"/>
<line fill="#000000" stroke="#000000" stroke-width="1" x1="709" x2="710" y1="1181" y2="1182"/>
<line fill="#000000" stroke="#000000" stroke-width="1" x1="697" x2="710" y1="1188" y2="1182"/>
<line fill="#000000" stroke="#000000" stroke-width="1" x1="698" x2="710" y1="1174" y2="1182"/>
<line fill="#000000" stroke="#000000" stroke-width="1" x1="629" x2="634" y1="1177" y2="1177"/>
<line fill="#000000" stroke="#000000" stroke-width="1" x1="639" x2="644" y1="1177" y2="1177"/>
<line fill="#000000" stroke="#000000" stroke-width="1" x1="649" x2="654" y1="1178" y2="1178"/>
<line fill="#000000" stroke="#000000" stroke-width="1" x1="659" x2="664" y1="1178" y2="1179"/>
<line fill="#000000" stroke="#000000" stroke-width="1" x1="669" x2="674" y1="1179" y2="1179"/>
<line fill="#000000" stroke="#000000" stroke-width="1" x1="679" x2="684" y1="1180" y2="1180"/>
<line fill="#000000" stroke="#000000" stroke-width="1" x1="689" x2="694" y1="1180" y2="1181"/>
<line fill="#000000" stroke="#000000" stroke-width="1" x1="699" x2="704" y1="1181" y2="1181"/>
<line fill="#000000" stroke="#000000" stroke-width="1" x1="709" x2="710" y1="1181" y2="1182"/>
<line fill="#000000" stroke="#000000" stroke-width="1" x1="697" x2="710" y1="1188" y2="1182"/>
<line fill="#000000" stroke="#000000" stroke-width="1" x1="698" x2="710" y1="1174" y2="1182"/>
<line fill="#000000" stroke="#000000" stroke-width="1" x1="1430" x2="1425" y1="1205" y2="1205"/>
<line fill="#000000" stroke="#000000" stroke-width="1" x1="1420" x2="1415" y1="1205" y2="1205"/>
<line fill="#000000" stroke="#000000" stroke-width="1" x1="1410" x2="1405" y1="1205" y2="1205"/>
<line fill="#000000" stroke="#000000" stroke-width="1" x1="1400" x2="1395" y1="1205" y2="1205"/>
<line fill="#000000" stroke="#000000" stroke-width="1" x1="1390" x2="1385" y1="1205" y2="1205"/>
<line fill="#000000" stroke="#000000" stroke-width="1" x1="1380" x2="1375" y1="1205" y2="1205"/>
<line fill="#000000" stroke="#000000" stroke-width="1" x1="1370" x2="1365" y1="1205" y2="1205"/>
<line fill="#000000" stroke="#000000" stroke-width="1" x1="1360" x2="1355" y1="1205" y2="1205"/>
<line fill="#000000" stroke="#000000" stroke-width="1" x1="1350" x2="1345" y1="1205" y2="1205"/>
<line fill="#000000" stroke="#000000" stroke-width="1" x1="1340" x2="1335" y1="1205" y2="1205"/>
<line fill="#000000" stroke="#000000" stroke-width="1" x1="1330" x2="1325" y1="1205" y2="1205"/>
<line fill="#000000" stroke="#000000" stroke-width="1" x1="1320" x2="1315" y1="1205" y2="1205"/>
<line fill="#000000" stroke="#000000" stroke-width="1" x1="1310" x2="1305" y1="1205" y2="1205"/>
<line fill="#000000" stroke="#000000" stroke-width="1" x1="1300" x2="1295" y1="1205" y2="1205"/>
<line fill="#000000" stroke="#000000" stroke-width="1" x1="1290" x2="1285" y1="1205" y2="1205"/>
<line fill="#000000" stroke="#000000" stroke-width="1" x1="1280" x2="1275" y1="1205" y2="1205"/>
<line fill="#000000" stroke="#000000" stroke-width="1" x1="1270" x2="1265" y1="1205" y2="1205"/>
<line fill="#000000" stroke="#000000" stroke-width="1" x1="1260" x2="1255" y1="1205" y2="1205"/>
<line fill="#000000" stroke="#000000" stroke-width="1" x1="1250" x2="1245" y1="1205" y2="1205"/>
<line fill="#000000" stroke="#000000" stroke-width="1" x1="1240" x2="1235" y1="1205" y2="1205"/>
<line fill="#000000" stroke="#000000" stroke-width="1" x1="1230" x2="1225" y1="1205" y2="1205"/>
<line fill="#000000" stroke="#000000" stroke-width="1" x1="1220" x2="1215" y1="1205" y2="1205"/>
<line fill="#000000" stroke="#000000" stroke-width="1" x1="1210" x2="1205" y1="1205" y2="1205"/>
<line fill="#000000" stroke="#000000" stroke-width="1" x1="1200" x2="1195" y1="1205" y2="1205"/>
<line fill="#000000" stroke="#000000" stroke-width="1" x1="1190" x2="1185" y1="1205" y2="1205"/>
<line fill="#000000" stroke="#000000" stroke-width="1" x1="1180" x2="1175" y1="1205" y2="1205"/>
<line fill="#000000" stroke="#000000" stroke-width="1" x1="1170" x2="1165" y1="1205" y2="1205"/>
<line fill="#000000" stroke="#000000" stroke-width="1" x1="1160" x2="1155" y1="1205" y2="1205"/>
<line fill="#000000" stroke="#000000" stroke-width="1" x1="1150" x2="1145" y1="1205" y2="1205"/>
<line fill="#000000" stroke="#000000" stroke-width="1" x1="1140" x2="1135" y1="1205" y2="1205"/>
<line fill="#000000" stroke="#000000" stroke-width="1" x1="1130" x2="1125" y1="1205" y2="1205"/>
<line fill="#000000" stroke="#000000" stroke-width="1" x1="1120" x2="1115" y1="1205" y2="1205"/>
<line fill="#000000" stroke="#000000" stroke-width="1" x1="1110" x2="1105" y1="1205" y2="1205"/>
<line fill="#000000" stroke="#000000" stroke-width="1" x1="1100" x2="1095" y1="1205" y2="1205"/>
<line fill="#000000" stroke="#000000" stroke-width="1" x1="1090" x2="1085" y1="1205" y2="1205"/>
<line fill="#000000" stroke="#000000" stroke-width="1" x1="1080" x2="1075" y1="1205" y2="1205"/>
<line fill="#000000" stroke="#000000" stroke-width="1" x1="1070" x2="1065" y1="1205" y2="1205"/>
<line fill="#000000" stroke="#000000" stroke-width="1" x1="1060" x2="1055" y1="1205" y2="1205"/>
<line fill="#000000" stroke="#000000" stroke-width="1" x1="1050" x2="1045" y1="1205" y2="1205"/>
<line fill="#000000" stroke="#000000" stroke-width="1" x1="1040" x2="1035" y1="1205" y2="1205"/>
<line fill="#000000" stroke="#000000" stroke-width="1" x1="1030" x2="1025" y1="1205" y2="1205"/>
<line fill="#000000" stroke="#000000" stroke-width="1" x1="1020" x2="1015" y1="1205" y2="1205"/>
<line fill="#000000" stroke="#000000" stroke-width="1" x1="1010" x2="1005" y1="1205" y2="1205"/>
<line fill="#000000" stroke="#000000" stroke-width="1" x1="1000" x2="995" y1="1205" y2="1205"/>
<line fill="#000000" stroke="#000000" stroke-width="1" x1="990" x2="985" y1="1205" y2="1205"/>
<line fill="#000000" stroke="#000000" stroke-width="1" x1="980" x2="975" y1="1205" y2="1205"/>
<line fill="#000000" stroke="#000000" stroke-width="1" x1="984" x2="972" y1="1198" y2="1205"/>
<line fill="#000000" stroke="#000000" stroke-width="1" x1="984" x2="972" y1="1212" y2="1205"/>
<line fill="#000000" stroke="#000000" stroke-width="1" x1="934" x2="933" y1="1137" y2="1141"/>
<line fill="#000000" stroke="#000000" stroke-width="1" x1="932" x2="931" y1="1146" y2="1151"/>
<line fill="#000000" stroke="#000000" stroke-width="1" x1="929" x2="928" y1="1156" y2="1161"/>
<line fill="#000000" stroke="#000000" stroke-width="1" x1="927" x2="925" y1="1166" y2="1171"/>
<line fill="#000000" stroke="#000000" stroke-width="1" x1="924" x2="923" y1="1176" y2="1181"/>
<line fill="#000000" stroke="#000000" stroke-width="1" x1="918" x2="922" y1="1168" y2="1182"/>
<line fill="#000000" stroke="#000000" stroke-width="1" x1="931" x2="922" y1="1172" y2="1182"/>
<rect fill="#c8ffff" height="100" stroke="#c8ffff" stroke-width="1" width="364" x="118" y="1222"/>
<rect fill="none" height="100" stroke="#000000" stroke-width="1" width="364" x="118" y="1222"/>
<text font-family="Dialog" font-size="12" x="123" y="1271">
com::spam::mctool::model::SenderAddedOrRemovedListener</text>
<text font-family="Dialog" font-size="12" x="255" y="1236">
&lt;&lt;interface&gt;&gt;</text>
<text font-family="Dialog" font-size="12" x="254" y="1253">
&lt;&lt;observer&gt;&gt;</text>
<rect fill="#000000" height="1" stroke="#000000" stroke-width="1" width="364" x="118" y="1281"/>
<text font-family="Dialog" font-size="12" x="122" y="1295">
senderAdded(e : SenderAddedOrRemovedEvent) : void</text>
<text font-family="Dialog" font-size="12" x="122" y="1311">
senderRemoved(e : SenderAddedOrRemovedEvent) : void</text>
<polyline fill="none" points="150,614 150,1134 150,1222" stroke="#000000" stroke-width="1"/>
<polygon fill="#000000" points="150,614 155,624 150,634 145,624" stroke="#000000" stroke-width="1"/>
<polygon fill="none" points="150,614 155,624 150,634 145,624" stroke="#000000" stroke-width="1"/>
<line fill="#000000" stroke="#000000" stroke-width="1" x1="143" x2="150" y1="1210" y2="1222"/>
<line fill="#000000" stroke="#000000" stroke-width="1" x1="157" x2="150" y1="1210" y2="1222"/>
<text font-family="Dialog" font-size="12" x="158" y="930">
&lt;&lt;inform&gt;&gt;</text>
<text font-family="Dialog" font-size="12" x="126" y="634">
1</text>
<text font-family="Dialog" font-size="12" x="127" y="1194">
*</text>
<polyline fill="none" points="558,1177 558,1350" stroke="#000000" stroke-width="1"/>
<polygon fill="#000000" points="558,1177 563,1187 558,1197 553,1187" stroke="#000000" stroke-width="1"/>
<polygon fill="none" points="558,1177 563,1187 558,1197 553,1187" stroke="#000000" stroke-width="1"/>
<line fill="#000000" stroke="#000000" stroke-width="1" x1="551" x2="558" y1="1338" y2="1350"/>
<line fill="#000000" stroke="#000000" stroke-width="1" x1="565" x2="558" y1="1338" y2="1350"/>
<text font-family="Dialog" font-size="12" x="566" y="1275">
&lt;&lt;inform&gt;&gt;</text>
<text font-family="Dialog" font-size="12" x="557" y="1314">
1</text>
<text font-family="Dialog" font-size="12" x="535" y="1322">
*</text>
<rect fill="#c8ffff" height="100" stroke="#c8ffff" stroke-width="1" width="394" x="1462" y="1238"/>
<rect fill="none" height="100" stroke="#000000" stroke-width="1" width="394" x="1462" y="1238"/>
<text font-family="Dialog" font-size="12" x="1477" y="1287">
com::spam::mctool::model::ReceiverAddedOrRemovedListener</text>
<text font-family="Dialog" font-size="12" x="1614" y="1252">
&lt;&lt;interface&gt;&gt;</text>
<text font-family="Dialog" font-size="12" x="1613" y="1269">
&lt;&lt;observer&gt;&gt;</text>
<rect fill="#000000" height="1" stroke="#000000" stroke-width="1" width="394" x="1462" y="1297"/>
<text font-family="Dialog" font-size="12" x="1466" y="1311">
receiverGroupAdded(e : ReceiverAddedOrRemovedEvent) : void</text>
<text font-family="Dialog" font-size="12" x="1466" y="1327">
receiverGroupRemoved(e : ReceiverAddedOrRemovedEvent) : void</text>
<polyline fill="none" points="1811,606 1862,606 1862,1246 1856,1246" stroke="#000000" stroke-width="1"/>
<polygon fill="#000000" points="1811,606 1821,601 1831,606 1821,611" stroke="#000000" stroke-width="1"/>
<polygon fill="none" points="1811,606 1821,601 1831,606 1821,611" stroke="#000000" stroke-width="1"/>
<line fill="#000000" stroke="#000000" stroke-width="1" x1="1868" x2="1856" y1="1239" y2="1246"/>
<line fill="#000000" stroke="#000000" stroke-width="1" x1="1868" x2="1856" y1="1253" y2="1246"/>
<text font-family="Dialog" font-size="12" x="1870" y="915">
&lt;&lt;inform&gt;&gt;</text>
<text font-family="Dialog" font-size="12" x="1876" y="585">
1</text>
<text font-family="Dialog" font-size="12" x="1876" y="1231">
*</text>
<rect fill="#c8ffff" height="84" stroke="#c8ffff" stroke-width="1" width="327" x="310" y="1350"/>
<rect fill="none" height="84" stroke="#000000" stroke-width="1" width="327" x="310" y="1350"/>
<text font-family="Dialog" font-size="12" x="315" y="1399">
com::spam::mctool::model::SenderDataChangeListener</text>
<text font-family="Dialog" font-size="12" x="428" y="1364">
&lt;&lt;interface&gt;&gt;</text>
<text font-family="Dialog" font-size="12" x="428" y="1381">
&lt;&lt;observer&gt;&gt;</text>
<rect fill="#000000" height="1" stroke="#000000" stroke-width="1" width="327" x="310" y="1409"/>
<text font-family="Dialog" font-size="12" x="314" y="1423">
dataChanged(e : SenderDataChangedEvent) : void</text>
<rect fill="#c8ffff" height="84" stroke="#c8ffff" stroke-width="1" width="336" x="1078" y="1246"/>
<rect fill="none" height="84" stroke="#000000" stroke-width="1" width="336" x="1078" y="1246"/>
<text font-family="Dialog" font-size="12" x="1083" y="1295">
com::spam::mctool::model::ReceiverDataChangeListener</text>
<text font-family="Dialog" font-size="12" x="1201" y="1260">
&lt;&lt;interface&gt;&gt;</text>
<text font-family="Dialog" font-size="12" x="1200" y="1277">
&lt;&lt;observer&gt;&gt;</text>
<rect fill="#000000" height="1" stroke="#000000" stroke-width="1" width="336" x="1078" y="1305"/>
<text font-family="Dialog" font-size="12" x="1082" y="1319">
dataChanged(e : ReceiverDataChangedEvent) : void</text>
<polyline fill="none" points="1358,1137 1358,1246" stroke="#000000" stroke-width="1"/>
<polygon fill="#000000" points="1358,1137 1363,1147 1358,1157 1353,1147" stroke="#000000" stroke-width="1"/>
<polygon fill="none" points="1358,1137 1363,1147 1358,1157 1353,1147" stroke="#000000" stroke-width="1"/>
<line fill="#000000" stroke="#000000" stroke-width="1" x1="1351" x2="1358" y1="1234" y2="1246"/>
<line fill="#000000" stroke="#000000" stroke-width="1" x1="1365" x2="1358" y1="1234" y2="1246"/>
<text font-family="Dialog" font-size="12" x="1366" y="1203">
&lt;&lt;inform&gt;&gt;</text>
<text font-family="Dialog" font-size="12" x="1334" y="1157">
1</text>
<text font-family="Dialog" font-size="12" x="1335" y="1218">
*</text>
<polyline fill="none" points="1230,302 1186,290" stroke="#000000" stroke-width="1"/>
<polygon fill="#000000" points="1230,302 1219,304 1211,297 1221,294" stroke="#000000" stroke-width="1"/>
<polygon fill="none" points="1230,302 1219,304 1211,297 1221,294" stroke="#000000" stroke-width="1"/>
<line fill="#000000" stroke="#000000" stroke-width="1" x1="1199" x2="1186" y1="286" y2="290"/>
<line fill="#000000" stroke="#000000" stroke-width="1" x1="1195" x2="1186" y1="299" y2="290"/>
<text font-family="Dialog" font-size="12" x="1177" y="283">
&lt;&lt;inform&gt;&gt;</text>
<text font-family="Dialog" font-size="12" x="1195" y="312">
1</text>
<text font-family="Dialog" font-size="12" x="1202" y="314">
*</text>
<rect fill="#c8ffff" height="84" stroke="#c8ffff" stroke-width="1" width="476" x="710" y="214"/>
<rect fill="none" height="84" stroke="#000000" stroke-width="1" width="476" x="710" y="214"/>
<text font-family="Dialog" font-size="12" x="750" y="263">
com::spam::mctool::model::OverallReceiverStatisticsUpdatedListener</text>
<text font-family="Dialog" font-size="12" x="903" y="228">
&lt;&lt;interface&gt;&gt;</text>
<text font-family="Dialog" font-size="12" x="902" y="245">
&lt;&lt;observer&gt;&gt;</text>
<rect fill="#000000" height="1" stroke="#000000" stroke-width="1" width="476" x="710" y="273"/>
<text font-family="Dialog" font-size="12" x="714" y="287">
overallReceiverStatisticsUpdated(e : OverallReceiverStatisticsUpdatedEvent) : void</text>
<rect fill="#c8ffff" height="84" stroke="#c8ffff" stroke-width="1" width="458" x="646" y="118"/>
<rect fill="none" height="84" stroke="#000000" stroke-width="1" width="458" x="646" y="118"/>
<text font-family="Dialog" font-size="12" x="682" y="167">
com::spam::mctool::model::OverallSenderStatisticsUpdatedListener</text>
<text font-family="Dialog" font-size="12" x="830" y="132">
&lt;&lt;interface&gt;&gt;</text>
<text font-family="Dialog" font-size="12" x="829" y="149">
&lt;&lt;observer&gt;&gt;</text>
<rect fill="#000000" height="1" stroke="#000000" stroke-width="1" width="458" x="646" y="177"/>
<text font-family="Dialog" font-size="12" x="650" y="191">
overallSenderStatisticsUpdated(e : OverallSenderStatisticsUpdatedEvent) : void</text>
<polyline fill="none" points="578,326 646,202" stroke="#000000" stroke-width="1"/>
<polygon fill="#000000" points="578,326 578,314 587,309 587,319" stroke="#000000" stroke-width="1"/>
<polygon fill="none" points="578,326 578,314 587,309 587,319" stroke="#000000" stroke-width="1"/>
<line fill="#000000" stroke="#000000" stroke-width="1" x1="646" x2="646" y1="215" y2="202"/>
<line fill="#000000" stroke="#000000" stroke-width="1" x1="634" x2="646" y1="209" y2="202"/>
<text font-family="Dialog" font-size="12" x="529" y="255">
&lt;&lt;inform&gt;&gt;</text>
<text font-family="Dialog" font-size="12" x="608" y="309">
1</text>
<text font-family="Dialog" font-size="12" x="648" y="236">
*</text>
</svg>
